<svg xmlns="http://www.w3.org/2000/svg" width="163.839" height="163.839" fill-rule="evenodd" clip-rule="evenodd" image-rendering="optimizeQuality" shape-rendering="geometricPrecision" text-rendering="geometricPrecision" viewBox="0 0 4335 4335"><path fill="#2b2a29" d="M2909 500H947c-22 0-43-5-61-14-37-14-62-39-73-81-5-15-8-31-8-48 0-79 64-143 143-143h2236c13-12 21-30 21-49 0-37-30-67-67-67H995c-371 0-347 322-347 322v2579c0 198 162 359 359 359h1904c198 0 359-162 359-359V859c0-198-162-359-359-359zM1043 3463h628v715l-301-257-327 279v-737z"/></svg>