<svg xmlns="http://www.w3.org/2000/svg" data-name="Layer 1" viewBox="0 0 24 24"><path d="M16.611,22.75H7.389A4.735,4.735,0,0,1,2.7,18.781L1.621,12.287A4.729,4.729,0,0,1,3.128,7.975L9.491,2.249a3.742,3.742,0,0,1,5.018,0l6.363,5.726a4.729,4.729,0,0,1,1.507,4.312L21.3,18.781A4.735,4.735,0,0,1,16.611,22.75ZM12,2.784a2.246,2.246,0,0,0-1.505.58L4.132,9.09A3.235,3.235,0,0,0,3.1,12.04l1.083,6.494A3.239,3.239,0,0,0,7.389,21.25h9.222a3.239,3.239,0,0,0,3.206-2.715l1.083-6.5a3.235,3.235,0,0,0-1.032-2.95L13.505,3.364A2.246,2.246,0,0,0,12,2.784Z"/><path d="M15,18.75H9a.75.75,0,0,1,0-1.5h6a.75.75,0,0,1,0,1.5Z"/></svg>