<svg xmlns="http://www.w3.org/2000/svg" enable-background="new 0 0 32 32" viewBox="0 0 32 32"><path d="M24.1289062,27.3222656v-1.515625h1.5161133c1.4765625,0,2.6777344-1.2011719,2.6777344-2.6777344V9.4082031
	c0-0.5615234-0.1723633-1.0996094-0.4985352-1.5556641l-3.3798828-4.7324219C23.9423828,2.4189453,23.1279297,2,22.265625,2
	H10.5483398C9.0722656,2,7.8710938,3.2011719,7.8710938,4.6777344v1.515625H6.3549805
	c-1.4765625,0-2.6777344,1.2011719-2.6777344,2.6777344v18.4511719C3.6772461,28.7988281,4.878418,30,6.3549805,30h15.0966797
	C22.9277344,30,24.1289062,28.7988281,24.1289062,27.3222656z M5.6772461,27.3222656V8.8710938
	c0-0.3740234,0.3041992-0.6777344,0.6777344-0.6777344h11.7172852c0.2182617,0,0.4243164,0.1054688,0.5507812,0.2832031
	l3.3803711,4.7324219c0.0810547,0.1132812,0.1254883,0.2529297,0.1254883,0.3935547v13.7197266
	C22.1289062,27.6962891,21.8251953,28,21.4516602,28H6.3549805C5.9814453,28,5.6772461,27.6962891,5.6772461,27.3222656z
	 M10.5483398,4H22.265625c0.2182617,0,0.4248047,0.1064453,0.5512695,0.2832031l3.3798828,4.7314453
	c0.0825195,0.1162109,0.1259766,0.2519531,0.1259766,0.3935547v13.7207031c0,0.3740234-0.3041992,0.6777344-0.6777344,0.6777344
	h-1.5161133V13.6025391c0-0.5634766-0.1728516-1.1015625-0.4985352-1.5566406l-3.3793945-4.7314453
	c-0.5014648-0.7021484-1.315918-1.1210938-2.1787109-1.1210938H9.8710938v-1.515625C9.8710938,4.3037109,10.1748047,4,10.5483398,4z
	"/><path d="M9.5058594 21.0917969h8.7939453c.5522461 0 1-.4472656 1-1s-.4477539-1-1-1H9.5058594c-.5522461 0-1 .4472656-1 1S8.9536133 21.0917969 9.5058594 21.0917969zM9.5058594 25.4882812h8.7939453c.5522461 0 1-.4472656 1-1s-.4477539-1-1-1H9.5058594c-.5522461 0-1 .4472656-1 1S8.9536133 25.4882812 9.5058594 25.4882812zM9.5058594 16.6943359h8.7939453c.5522461 0 1-.4472656 1-1s-.4477539-1-1-1H9.5058594c-.5522461 0-1 .4472656-1 1S8.9536133 16.6943359 9.5058594 16.6943359z"/></svg>