<svg xmlns="http://www.w3.org/2000/svg" fill-rule="evenodd" stroke-linejoin="round" stroke-miterlimit="2" clip-rule="evenodd" viewBox="0 0 32 32"><path d="M19.017 16.167c2.383 0 4.667.946 6.352 2.631 1.685 1.684 2.631 3.969 2.631 6.351l0 2.851c0 .796-.316 1.559-.879 2.121-.562.563-1.325.879-2.121.879l-18 0c-.796 0-1.559-.316-2.121-.879-.563-.562-.879-1.325-.879-2.121l0-2.851c0-2.382.946-4.667 2.631-6.351 1.685-1.685 3.969-2.631 6.352-2.631l6.034 0zm0 2l-6.034 0c-1.852 0-3.628.735-4.938 2.045-1.309 1.309-2.045 3.086-2.045 4.937l0 2.851c0 .265.105.52.293.707.187.188.442.293.707.293l18 0c.265 0 .52-.105.707-.293.188-.187.293-.442.293-.707l0-2.851c0-1.851-.736-3.628-2.045-4.937-1.31-1.31-3.086-2.045-4.938-2.045zM16 1c3.863 0 7 3.137 7 7 0 3.863-3.137 7-7 7-3.863 0-7-3.137-7-7 0-3.863 3.137-7 7-7zm0 2c-2.76 0-5 2.24-5 5 0 2.76 2.24 5 5 5 2.76 0 5-2.24 5-5 0-2.76-2.24-5-5-5z"/></svg>